<svg version="1.1" id="Layer_1" xmlns="http://www.w3.org/2000/svg" xmlns:xlink="http://www.w3.org/1999/xlink" x="0px" y="0px"
	 width="100%" viewBox="0 0 196 184" enable-background="new 0 0 196 184" xml:space="preserve">
<path fill="#4A37F4" opacity="1.000000" stroke="none" 
	d="
M197.000000,3.000000 
	C197.000000,61.354229 197.000000,119.708458 196.531342,178.531708 
	C131.041794,179.000504 66.020897,179.000259 1.000000,179.000000 
	C1.000000,120.645775 1.000000,62.291542 1.468657,3.469693 
	C66.958206,3.001381 131.979111,3.000690 197.000000,3.000000 
z"/>
<path fill="#FFFFFF" opacity="1.000000" stroke="none" 
	d="
M197.000000,182.000000 
	C197.000000,182.997513 197.000000,183.995041 197.000000,184.996277 
	C132.828781,185.000000 68.657547,185.009552 4.486435,184.927612 
	C3.273347,184.926071 0.518239,186.532227 1.214626,182.429138 
	C1.697843,181.704010 1.907393,181.491516 2.076678,181.108429 
	C2.095456,180.996078 1.933558,180.835785 2.401738,180.905838 
	C60.281773,180.985092 117.693626,181.000122 175.105484,180.995956 
	C182.091187,180.995438 189.076904,180.891693 195.983444,180.916687 
	C195.904282,180.997604 195.942123,181.220779 196.077179,181.402039 
	C196.427795,181.811050 196.690384,181.949966 197.000000,182.000000 
z"/>
<path fill="#3C2CC6" opacity="1.000000" stroke="none" 
	d="
M197.000000,2.500001 
	C131.979111,3.000690 66.958206,3.001381 1.468656,3.001036 
	C1.166667,2.333333 1.196453,1.185555 1.526108,1.091765 
	C2.451224,0.828561 3.500000,1.000000 4.500000,1.000000 
	C67.500000,1.000000 130.500000,0.994613 193.499969,1.041653 
	C194.666885,1.042524 195.833328,1.666669 197.000000,2.500001 
z"/>
<path fill="#3C2CC6" opacity="1.000000" stroke="none" 
	d="
M196.062607,180.835785 
	C189.076904,180.891693 182.091187,180.995438 175.105484,180.995956 
	C117.693626,181.000122 60.281773,180.985092 2.304101,180.710938 
	C1.536815,180.223465 1.290720,180.074814 1.000000,180.000000 
	C1.000000,180.000000 1.000000,179.500000 1.000000,179.250000 
	C66.020897,179.000259 131.041794,179.000504 196.531342,179.000366 
	C197.000000,179.000000 197.000000,179.500000 196.798187,179.833923 
	C196.325867,180.316498 196.147949,180.539154 196.062607,180.835785 
z"/>
<path fill="#5346CA" opacity="1.000000" stroke="none" 
	d="
M1.000000,180.250000 
	C1.290720,180.074814 1.536815,180.223465 1.835922,180.640884 
	C1.933558,180.835785 2.095456,180.996078 1.819188,181.019760 
	C1.361947,181.028946 1.180973,181.014465 1.000000,181.000000 
	C1.000000,181.000000 1.000000,180.500000 1.000000,180.250000 
z"/>
<path fill="#5346CA" opacity="1.000000" stroke="none" 
	d="
M195.983444,180.916687 
	C196.147949,180.539154 196.325867,180.316498 196.798187,180.083923 
	C197.000000,180.000000 197.000000,180.500000 196.728561,180.771759 
	C196.285446,181.102615 196.113785,181.161697 195.942123,181.220779 
	C195.942123,181.220779 195.904282,180.997604 195.983444,180.916687 
z"/>
<path fill="#E7E5F8" opacity="1.000000" stroke="none" 
	d="
M1.000000,181.250000 
	C1.180973,181.014465 1.361947,181.028946 1.800410,181.132111 
	C1.907393,181.491516 1.697843,181.704010 1.214626,181.929138 
	C1.000000,182.000000 1.000000,181.500000 1.000000,181.250000 
z"/>
<path fill="#E7E5F8" opacity="1.000000" stroke="none" 
	d="
M196.077179,181.402039 
	C196.113785,181.161697 196.285446,181.102615 196.728561,181.021759 
	C197.000000,181.000000 197.000000,181.500000 197.000000,181.750000 
	C196.690384,181.949966 196.427795,181.811050 196.077179,181.402039 
z"/>
</svg>