<svg version="1.1" id="Layer_1" xmlns="http://www.w3.org/2000/svg" xmlns:xlink="http://www.w3.org/1999/xlink" x="0px" y="0px"
	 width="100%" viewBox="0 0 241 241" enable-background="new 0 0 241 241" xml:space="preserve">
<path fill="#891D19" opacity="1.000000" stroke="none" 
	d="
M0.999999,235.000000 
	C1.000000,158.645767 1.000000,82.291542 1.314457,5.396974 
	C2.419277,3.571089 3.209638,2.285544 4.000000,1.000000 
	C4.444445,1.000000 4.888889,1.000000 5.770981,1.324814 
	C8.742720,1.766309 11.276784,1.984256 13.810905,1.984920 
	C84.467308,2.003431 155.123718,1.991956 225.780106,2.033202 
	C228.253128,2.034646 230.725845,2.524719 233.263504,2.431793 
	C238.893463,3.907269 239.874130,8.284316 239.871643,13.418297 
	C239.837219,84.294899 239.762573,155.171783 239.958984,226.047852 
	C239.983200,234.785126 236.982437,239.353897 227.719482,240.588669 
	C156.435577,240.483215 85.623825,240.466995 14.812063,240.462021 
	C13.818334,240.461960 12.824593,240.603424 11.516766,240.498550 
	C7.801782,238.545517 4.400890,236.772766 0.999999,235.000000 
z"/>
<path fill="#F7F6F6" opacity="1.000000" stroke="none" 
	d="
M11.830857,240.678833 
	C12.824593,240.603424 13.818334,240.461960 14.812063,240.462021 
	C85.623825,240.466995 156.435577,240.483215 228.052460,240.755951 
	C237.318420,241.381638 240.703873,238.196014 240.894119,229.682388 
	C240.908997,229.016830 240.899750,228.350693 240.899750,227.684830 
	C240.899933,156.269974 240.874542,84.855080 240.957886,13.440315 
	C240.963364,8.744480 240.203659,4.549959 237.000000,1.000000 
	C238.666672,1.000000 240.333328,1.000000 242.000000,1.000000 
	C242.000000,81.333336 242.000000,161.666672 242.000000,242.000000 
	C163.000000,242.000000 84.000000,242.001953 5.000002,241.988876 
	C2.983019,241.988541 0.071042,243.016388 1.319588,238.658936 
	C4.558638,241.167252 7.963995,241.919144 11.830857,240.678833 
z"/>
<path fill="#E3CCCB" opacity="1.000000" stroke="none" 
	d="
M236.625000,1.000000 
	C240.203659,4.549959 240.963364,8.744480 240.957886,13.440315 
	C240.874542,84.855080 240.899933,156.269974 240.899750,227.684830 
	C240.899750,228.350693 240.908997,229.016830 240.894119,229.682388 
	C240.703873,238.196014 237.318420,241.381638 228.524597,240.846085 
	C236.982437,239.353897 239.983200,234.785126 239.958984,226.047852 
	C239.762573,155.171783 239.837219,84.294899 239.871643,13.418297 
	C239.874130,8.284316 238.893463,3.907269 233.243622,2.417054 
	C233.158966,2.757573 233.125473,2.723424 233.509949,2.644177 
	C233.929626,2.043287 233.964813,1.521644 234.000000,1.000000 
	C234.750000,1.000000 235.500000,1.000000 236.625000,1.000000 
z"/>
<path fill="#902B27" opacity="1.000000" stroke="none" 
	d="
M233.125473,2.723424 
	C233.125473,2.723424 233.158966,2.757573 233.178833,2.772312 
	C230.725845,2.524719 228.253128,2.034646 225.780106,2.033202 
	C155.123718,1.991956 84.467308,2.003431 13.810905,1.984920 
	C11.276784,1.984256 8.742720,1.766309 6.104314,1.324814 
	C81.354225,1.000000 156.708450,1.000000 232.543182,1.432279 
	C233.057602,2.150846 233.091537,2.437135 233.125473,2.723424 
z"/>
<path fill="#E3CCCB" opacity="1.000000" stroke="none" 
	d="
M11.516766,240.498550 
	C7.963995,241.919144 4.558638,241.167252 1.319588,238.158936 
	C1.000000,237.250000 1.000000,236.500000 0.999999,235.375000 
	C4.400890,236.772766 7.801782,238.545517 11.516766,240.498550 
z"/>
<path fill="#F3E9E9" opacity="1.000000" stroke="none" 
	d="
M3.500000,1.000000 
	C3.209638,2.285544 2.419277,3.571089 1.314457,4.928316 
	C1.829342,3.748004 -0.962960,0.685187 3.500000,1.000000 
z"/>
<path fill="#891D19" opacity="1.000000" stroke="none" 
	d="
M233.509949,2.644177 
	C233.091537,2.437135 233.057602,2.150846 233.011841,1.432279 
	C233.000000,1.000000 233.500000,1.000000 233.750000,1.000000 
	C233.964813,1.521644 233.929626,2.043287 233.509949,2.644177 
z"/>
</svg>