<svg version="1.1" id="Layer_1" xmlns="http://www.w3.org/2000/svg" xmlns:xlink="http://www.w3.org/1999/xlink" x="0px" y="0px"
	 width="100%" viewBox="0 0 184 190" enable-background="new 0 0 184 190" xml:space="preserve">
<path fill="#410807" opacity="1.000000" stroke="none" 
	d="
M185.000000,9.000000 
	C185.000000,68.687561 185.000000,128.375122 184.664124,188.499374 
	C183.886139,188.869049 183.444016,188.802017 182.972870,188.525543 
	C182.789032,188.108246 182.634201,187.900391 182.479370,187.692551 
	C182.295135,188.040070 182.110901,188.387604 181.883362,188.871780 
	C181.840042,189.008438 182.073120,189.175430 181.604828,189.102859 
	C153.283081,189.024597 125.429634,189.016403 97.576187,189.020996 
	C96.254440,189.021210 94.932701,189.134705 93.610962,189.195450 
	C93.740646,189.796967 93.870323,190.398483 94.000000,191.000000 
	C63.645771,191.000000 33.291542,191.000000 2.800938,190.885529 
	C2.671601,190.536865 2.678641,190.302673 2.708616,189.626770 
	C2.154367,189.123383 1.577184,189.061691 1.000000,189.000000 
	C1.000000,129.312439 1.000000,69.624878 1.262313,9.484766 
	C1.685579,8.962997 1.846530,8.893778 2.470656,8.897158 
	C49.654884,8.975448 96.375946,8.993463 143.097000,8.979157 
	C156.727112,8.974984 170.357208,8.878650 184.230087,8.928392 
	C184.648575,9.021483 184.824295,9.010741 185.000000,9.000000 
z"/>
<path fill="#FFFFFF" opacity="1.000000" stroke="none" 
	d="
M183.987305,8.824558 
	C170.357208,8.878650 156.727112,8.974984 143.097000,8.979157 
	C96.375946,8.993463 49.654884,8.975448 2.352909,8.704346 
	C1.569790,8.195672 1.312460,8.049360 1.000000,8.000000 
	C1.000000,5.672524 1.000000,3.345049 1.000000,1.013600 
	C62.333332,1.009626 123.666664,1.009626 185.000000,1.014440 
	C185.000000,3.014232 185.000000,5.009211 184.785858,7.575869 
	C184.305130,8.311250 184.110336,8.536921 183.987305,8.824558 
z"/>
<path fill="#FFFFFF" opacity="1.000000" stroke="none" 
	d="
M94.468658,191.000000 
	C93.870323,190.398483 93.740646,189.796967 93.610962,189.195450 
	C94.932701,189.134705 96.254440,189.021210 97.576187,189.020996 
	C125.429634,189.016403 153.283081,189.024597 181.825958,189.328583 
	C183.343582,189.751251 184.171799,189.875626 185.000000,190.000000 
	C183.674637,190.333328 182.349823,190.955002 181.023819,190.957581 
	C152.328400,191.013321 123.632843,191.000000 94.468658,191.000000 
z"/>
<path fill="#E6E0E0" opacity="1.000000" stroke="none" 
	d="
M185.000000,189.750000 
	C184.171799,189.875626 183.343582,189.751251 182.294250,189.401154 
	C182.073120,189.175430 181.840042,189.008438 182.152176,188.943542 
	C182.643509,188.830765 182.822708,188.782883 183.001907,188.735001 
	C183.444016,188.802017 183.886139,188.869049 184.664124,188.968033 
	C185.000000,189.000000 185.000000,189.500000 185.000000,189.750000 
z"/>
<path fill="#E6E0E0" opacity="1.000000" stroke="none" 
	d="
M1.000000,8.250000 
	C1.312460,8.049360 1.569790,8.195672 1.889735,8.631746 
	C1.846530,8.893778 1.685579,8.962997 1.262313,9.016108 
	C1.000000,9.000000 1.000000,8.500000 1.000000,8.250000 
z"/>
<path fill="#E6E0E0" opacity="1.000000" stroke="none" 
	d="
M184.230087,8.928391 
	C184.110336,8.536921 184.305130,8.311250 184.785858,8.073774 
	C185.000000,8.000000 185.000000,8.500000 185.000000,8.750000 
	C184.824295,9.010741 184.648575,9.021483 184.230087,8.928391 
z"/>
<path fill="#E6E0E0" opacity="1.000000" stroke="none" 
	d="
M1.000000,189.250000 
	C1.577184,189.061691 2.154367,189.123383 2.285958,189.551636 
	C1.560244,189.945450 1.280122,189.972717 1.000000,190.000000 
	C1.000000,190.000000 1.000000,189.500000 1.000000,189.250000 
z"/>
<path fill="#FFFFFF" opacity="1.000000" stroke="none" 
	d="
M1.000000,190.500000 
	C1.280122,189.972717 1.560244,189.945450 2.263024,189.993332 
	C2.678641,190.302673 2.671601,190.536865 2.332280,190.885529 
	C1.666667,191.000000 1.333333,191.000000 1.000000,190.500000 
z"/>
<path fill="#380706" opacity="1.000000" stroke="none" 
	d="
M182.972870,188.525543 
	C182.822708,188.782883 182.643509,188.830765 182.195496,188.806885 
	C182.110901,188.387604 182.295135,188.040070 182.479370,187.692551 
	C182.634201,187.900391 182.789032,188.108246 182.972870,188.525543 
z"/>
</svg>