<svg version="1.1" id="Layer_1" xmlns="http://www.w3.org/2000/svg" xmlns:xlink="http://www.w3.org/1999/xlink" x="0px" y="0px"
	 width="100%" viewBox="0 0 236 178" enable-background="new 0 0 236 178" xml:space="preserve">
<path fill="#360405" opacity="1.000000" stroke="none" 
	d="
M237.000000,3.000000 
	C237.000000,61.622986 237.000000,120.245972 237.000000,178.934479 
	C158.435638,178.934479 79.871201,178.934479 1.000000,178.934479 
	C1.000000,120.646133 1.000000,62.291721 1.468657,3.468884 
	C80.291542,3.000302 158.645767,3.000151 237.000000,3.000000 
z"/>
<path fill="#2C0304" opacity="1.000000" stroke="none" 
	d="
M237.000000,2.500000 
	C158.645767,3.000151 80.291542,3.000302 1.468657,3.000226 
	C1.166667,2.333333 1.229735,1.149261 1.518317,1.091479 
	C2.640014,0.866886 3.833333,1.000000 5.000000,1.000000 
	C81.000000,1.000000 157.000000,0.994896 232.999969,1.041624 
	C234.333511,1.042444 235.666672,1.666666 237.000000,2.500000 
z"/>
</svg>