<svg version="1.1" id="Layer_1" xmlns="http://www.w3.org/2000/svg" xmlns:xlink="http://www.w3.org/1999/xlink" x="0px" y="0px"
	 width="100%" viewBox="0 0 196 186" enable-background="new 0 0 196 186" xml:space="preserve">
<path fill="#DAA520" opacity="1.000000" stroke="none" 
	d="
M1.000000,181.000000 
	C1.000000,122.645775 1.000000,64.291542 1.468655,5.470165 
	C66.958206,5.002010 131.979111,5.001005 197.000000,5.000000 
	C197.000000,63.354229 197.000000,121.708458 196.531342,180.529831 
	C131.041794,180.997986 66.020897,180.998993 1.000000,181.000000 
z"/>
<path fill="#FFFFFF" opacity="1.000000" stroke="none" 
	d="
M197.000000,184.000000 
	C197.000000,184.997513 197.000000,185.995041 197.000000,186.996277 
	C132.828781,187.000000 68.657547,187.009552 4.486435,186.927612 
	C3.273347,186.926071 0.518239,188.532227 1.213785,184.427979 
	C1.694475,183.700760 1.903944,183.488785 2.064458,183.112640 
	C2.072938,183.005219 1.934210,182.840302 2.402425,182.909790 
	C65.254280,182.989456 127.637924,182.997925 190.021561,183.017563 
	C192.013611,183.018188 194.005615,183.133087 196.116699,183.382950 
	C196.438309,183.807114 196.693069,183.950043 197.000000,184.000000 
z"/>
<path fill="#B48819" opacity="1.000000" stroke="none" 
	d="
M195.997650,183.194702 
	C194.005615,183.133087 192.013611,183.018188 190.021561,183.017563 
	C127.637924,182.997925 65.254280,182.989456 2.303359,182.715302 
	C1.536256,182.226624 1.290897,182.076187 1.000000,182.000000 
	C1.000000,182.000000 1.000000,181.500000 1.000000,181.250000 
	C66.020897,180.998993 131.041794,180.997986 196.531342,180.998489 
	C197.000000,181.444443 197.000000,181.888901 196.743362,182.684204 
	C196.323700,183.088303 196.160675,183.141510 195.997650,183.194702 
z"/>
<path fill="#FFFFFF" opacity="1.000000" stroke="none" 
	d="
M1.000000,2.000000 
	C2.333333,1.666667 3.666450,1.042715 5.000031,1.041720 
	C68.999992,0.993944 133.000000,1.000000 196.793381,1.571830 
	C196.327637,2.306160 196.153717,2.533763 195.596558,2.893481 
	C139.379425,2.970393 83.630737,2.987475 27.882046,2.982666 
	C19.231787,2.981919 10.581535,2.881041 1.833791,2.631213 
	C1.549731,2.191248 1.304297,2.045928 1.000000,2.000000 
z"/>
<path fill="#B48819" opacity="1.000000" stroke="none" 
	d="
M1.931280,2.826467 
	C10.581535,2.881041 19.231787,2.981919 27.882046,2.982666 
	C83.630737,2.987475 139.379425,2.970393 195.529999,2.978799 
	C195.931885,2.997102 195.946686,3.213000 196.082703,3.391814 
	C196.443192,3.779136 196.703629,3.922260 197.000000,4.000000 
	C197.000000,4.000000 197.000000,4.500000 197.000000,4.750000 
	C131.979111,5.001005 66.958206,5.002010 1.468655,5.001508 
	C1.000000,5.000000 1.000000,4.500000 1.208859,4.167155 
	C1.690704,3.689732 1.902574,3.482629 2.060355,3.104513 
	C2.067381,2.996027 1.931280,2.826467 1.931280,2.826467 
z"/>
<path fill="#F5F0E3" opacity="1.000000" stroke="none" 
	d="
M1.000000,2.250000 
	C1.304297,2.045928 1.549731,2.191248 1.833791,2.631213 
	C1.931280,2.826467 2.067381,2.996027 1.803263,3.020393 
	C1.359429,3.029839 1.179715,3.014920 1.000000,3.000000 
	C1.000000,3.000000 1.000000,2.500000 1.000000,2.250000 
z"/>
<path fill="#F5F0E3" opacity="1.000000" stroke="none" 
	d="
M195.998444,2.911785 
	C196.153717,2.533763 196.327637,2.306160 196.793381,2.071830 
	C197.000000,2.000000 197.000000,2.500000 196.730438,2.772457 
	C196.289474,3.100943 196.118073,3.156971 195.946686,3.213000 
	C195.946686,3.213000 195.931885,2.997102 195.998444,2.911785 
z"/>
<path fill="#B89334" opacity="1.000000" stroke="none" 
	d="
M1.000000,3.250000 
	C1.179715,3.014920 1.359429,3.029839 1.796237,3.128879 
	C1.902574,3.482629 1.690704,3.689732 1.208859,3.917155 
	C1.000000,4.000000 1.000000,3.500000 1.000000,3.250000 
z"/>
<path fill="#B89334" opacity="1.000000" stroke="none" 
	d="
M196.082703,3.391814 
	C196.118073,3.156971 196.289474,3.100943 196.730438,3.022457 
	C197.000000,3.000000 197.000000,3.500000 197.000000,3.750000 
	C196.703629,3.922260 196.443192,3.779136 196.082703,3.391814 
z"/>
<path fill="#B89334" opacity="1.000000" stroke="none" 
	d="
M1.000000,182.250000 
	C1.290897,182.076187 1.536256,182.226624 1.835144,182.645813 
	C1.934210,182.840302 2.072938,183.005219 1.807102,183.025757 
	C1.360844,183.030869 1.180422,183.015427 1.000000,183.000000 
	C1.000000,183.000000 1.000000,182.500000 1.000000,182.250000 
z"/>
<path fill="#F5F0E3" opacity="1.000000" stroke="none" 
	d="
M1.000000,183.250000 
	C1.180422,183.015427 1.360844,183.030869 1.798622,183.133179 
	C1.903944,183.488785 1.694475,183.700760 1.213785,183.927979 
	C1.000000,184.000000 1.000000,183.500000 1.000000,183.250000 
z"/>
<path fill="#F5F0E3" opacity="1.000000" stroke="none" 
	d="
M196.116699,183.382950 
	C196.160675,183.141510 196.323700,183.088303 196.743362,183.017548 
	C197.000000,183.000000 197.000000,183.500000 197.000000,183.750000 
	C196.693069,183.950043 196.438309,183.807114 196.116699,183.382950 
z"/>
</svg>