<svg version="1.1" id="Layer_1" xmlns="http://www.w3.org/2000/svg" xmlns:xlink="http://www.w3.org/1999/xlink" x="0px" y="0px"
	 width="100%" viewBox="0 0 206 188" enable-background="new 0 0 206 188" xml:space="preserve">
<path fill="#8B0201" opacity="1.000000" stroke="none" 
	d="
M207.000000,9.000000 
	C207.000000,67.354225 207.000000,125.708458 206.531342,184.531067 
	C140.653915,184.999420 75.245132,184.989594 9.836405,185.040451 
	C7.565977,185.042206 5.296018,185.649551 3.017371,185.508728 
	C3.014546,126.037025 3.020191,67.031204 3.408916,8.187885 
	C5.918874,8.567163 8.045658,8.972301 10.172647,8.973377 
	C75.781754,9.006588 141.390884,9.000241 207.000000,9.000000 
z"/>
<path fill="#FFFFFF" opacity="1.000000" stroke="none" 
	d="
M1.000000,6.000000 
	C1.000000,4.337200 1.000000,2.674399 1.000000,1.008699 
	C69.666664,1.005800 138.333328,1.005800 207.000000,1.007580 
	C207.000000,2.339598 207.000000,3.669837 206.781006,5.564838 
	C206.284851,6.280069 206.076202,6.496587 205.891174,6.901224 
	C205.846222,7.023293 206.064407,7.164994 205.596924,7.090610 
	C138.910889,7.010017 72.692345,7.002750 6.473792,7.006258 
	C5.315318,7.006319 4.156850,7.136027 2.742797,7.112723 
	C2.311697,7.065195 2.136180,7.110182 2.058662,7.080988 
	C2.156662,7.006806 2.063910,6.779155 1.933106,6.591962 
	C1.583846,6.172775 1.316412,6.037852 1.000000,6.000000 
z"/>
<path fill="#FFFFFF" opacity="1.000000" stroke="none" 
	d="
M207.000000,188.000000 
	C205.504425,188.333328 204.009048,188.957153 202.513229,188.958237 
	C135.342178,189.006454 68.171089,189.000000 1.218994,188.435181 
	C1.715172,187.719910 1.923816,187.503387 2.110219,187.106903 
	C2.156519,186.992996 1.960218,186.844833 2.223575,186.911774 
	C2.657392,186.917389 2.827852,186.856079 3.458957,186.887024 
	C67.643044,186.987015 131.366486,186.997513 195.089920,186.995239 
	C198.746307,186.995102 202.402695,186.890823 205.951721,186.907043 
	C205.844345,186.979080 205.936111,187.220825 206.066910,187.408020 
	C206.416153,187.827225 206.683594,187.962158 207.000000,188.000000 
z"/>
<path fill="#730102" opacity="1.000000" stroke="none" 
	d="
M206.059082,186.835022 
	C202.402695,186.890823 198.746307,186.995102 195.089920,186.995239 
	C131.366486,186.997513 67.643044,186.987015 3.459517,186.690689 
	C2.999434,186.402069 2.992779,186.007263 3.000392,185.999664 
	C3.008005,185.992050 3.025840,185.974625 3.025840,185.974625 
	C5.296018,185.649551 7.565977,185.042206 9.836405,185.040451 
	C75.245132,184.989594 140.653915,184.999420 206.531342,184.999725 
	C207.000000,185.000000 207.000000,185.500000 206.795563,185.831161 
	C206.313660,186.307358 206.136307,186.531586 206.059082,186.835022 
z"/>
<path fill="#730102" opacity="1.000000" stroke="none" 
	d="
M2.998379,7.205240 
	C4.156850,7.136027 5.315318,7.006319 6.473792,7.006258 
	C72.692345,7.002750 138.910889,7.010017 205.690796,7.288732 
	C206.456421,7.784197 206.705704,7.930451 207.000000,8.000000 
	C207.000000,8.000000 207.000000,8.500000 207.000000,8.750000 
	C141.390884,9.000241 75.781754,9.006588 10.172647,8.973377 
	C8.045658,8.972301 5.918874,8.567163 3.400007,8.179161 
	C3.008019,8.007938 2.992783,7.992759 2.996222,7.796083 
	C2.999662,7.599409 2.998379,7.205240 2.998379,7.205240 
z"/>
<path fill="#730102" opacity="1.000000" stroke="none" 
	d="
M3.016928,8.016664 
	C3.020191,67.031204 3.014546,126.037025 3.017370,185.508728 
	C3.025840,185.974625 3.008005,185.992050 2.755764,185.997070 
	C2.503524,186.002106 2.013481,186.001099 1.760111,186.000961 
	C1.337827,186.000549 1.168913,186.000275 1.000000,186.000000 
	C1.000000,126.979103 1.000000,67.958206 1.253370,8.468266 
	C1.675653,7.999134 1.844567,7.999050 2.258312,7.998371 
	C2.503144,7.997775 2.992783,7.992759 2.992783,7.992759 
	C2.992783,7.992759 3.008019,8.007938 3.016928,8.016664 
z"/>
<path fill="#812021" opacity="1.000000" stroke="none" 
	d="
M207.000000,7.750000 
	C206.705704,7.930451 206.456421,7.784197 206.158279,7.363116 
	C206.064407,7.164994 205.846222,7.023293 206.148895,6.996184 
	C206.634354,6.979383 206.817169,6.989692 207.000000,7.000000 
	C207.000000,7.000000 207.000000,7.500000 207.000000,7.750000 
z"/>
<path fill="#812021" opacity="1.000000" stroke="none" 
	d="
M2.013480,7.998967 
	C1.844567,7.999050 1.675653,7.999134 1.253370,7.999609 
	C1.000000,8.000000 1.000000,7.500000 1.274227,7.234530 
	C1.720273,6.905759 1.892092,6.842457 2.063910,6.779155 
	C2.063910,6.779155 2.156662,7.006806 2.082111,7.291039 
	C2.007561,7.575271 2.013480,7.998967 2.013480,7.998967 
z"/>
<path fill="#EDE0E0" opacity="1.000000" stroke="none" 
	d="
M207.000000,6.750000 
	C206.817169,6.989692 206.634354,6.979383 206.193832,6.874115 
	C206.076202,6.496587 206.284851,6.280069 206.781006,6.064801 
	C207.000000,6.000000 207.000000,6.500000 207.000000,6.750000 
z"/>
<path fill="#812021" opacity="1.000000" stroke="none" 
	d="
M1.000000,186.250000 
	C1.168913,186.000275 1.337827,186.000549 1.756511,186.212494 
	C2.006281,186.424149 1.960218,186.844833 1.960218,186.844833 
	C1.960218,186.844833 2.156519,186.992996 1.852489,187.011963 
	C1.365640,187.020615 1.182820,187.010300 1.000000,187.000000 
	C1.000000,187.000000 1.000000,186.500000 1.000000,186.250000 
z"/>
<path fill="#812021" opacity="1.000000" stroke="none" 
	d="
M205.951721,186.907043 
	C206.136307,186.531586 206.313660,186.307358 206.795563,186.081161 
	C207.000000,186.000000 207.000000,186.500000 206.725769,186.765472 
	C206.279739,187.094223 206.107925,187.157516 205.936111,187.220825 
	C205.936111,187.220825 205.844345,186.979080 205.951721,186.907043 
z"/>
<path fill="#EDE0E0" opacity="1.000000" stroke="none" 
	d="
M1.000000,187.250000 
	C1.182820,187.010300 1.365640,187.020615 1.806189,187.125870 
	C1.923816,187.503387 1.715172,187.719910 1.218994,187.935181 
	C1.000000,188.000000 1.000000,187.500000 1.000000,187.250000 
z"/>
<path fill="#EDE0E0" opacity="1.000000" stroke="none" 
	d="
M1.933106,6.591962 
	C1.892092,6.842457 1.720273,6.905759 1.274227,6.984530 
	C1.000000,7.000000 1.000000,6.500000 1.000000,6.250000 
	C1.316412,6.037852 1.583846,6.172775 1.933106,6.591962 
z"/>
<path fill="#EDE0E0" opacity="1.000000" stroke="none" 
	d="
M206.066910,187.408020 
	C206.107925,187.157516 206.279739,187.094223 206.725769,187.015472 
	C207.000000,187.000000 207.000000,187.500000 207.000000,187.750000 
	C206.683594,187.962158 206.416153,187.827225 206.066910,187.408020 
z"/>
<path fill="#8B0201" opacity="1.000000" stroke="none" 
	d="
M2.258312,7.998371 
	C2.013480,7.998967 2.007561,7.575271 1.984112,7.365221 
	C2.136180,7.110182 2.311697,7.065195 2.742797,7.112723 
	C2.998379,7.205240 2.999662,7.599409 2.996222,7.796083 
	C2.992783,7.992759 2.503144,7.997775 2.258312,7.998371 
z"/>
<path fill="#8B0201" opacity="1.000000" stroke="none" 
	d="
M2.223575,186.911774 
	C1.960218,186.844833 2.006281,186.424149 2.009881,186.212616 
	C2.013481,186.001099 2.503524,186.002106 2.748151,186.004684 
	C2.992779,186.007263 2.999434,186.402069 2.998873,186.598419 
	C2.827852,186.856079 2.657392,186.917389 2.223575,186.911774 
z"/>
</svg>