<?xml version="1.0" encoding="utf-8"?>
<svg viewBox="290.9568176269531 55.64057922363281 55.62664794921875 36.682716369628906" width="55.62664794921875" height="36.682716369628906" xmlns="http://www.w3.org/2000/svg"><g transform="matrix(1, 0, 0, 1, -112.72891998291016, -16.196683883666992)"><path fill="#CCCCCC" d="M1648.6,295.8c-0.1-0.3-0.2-0.6-0.4-0.8c-2.1-3.2-19.3-24.2-23.6-29.5c-0.3-0.4-0.6-0.7-0.6-0.8&#10;&#9;&#9;c0,0,0-0.1-0.1-0.1c-0.1-0.2-0.2-0.3-0.3-0.3c-0.4-0.5-1-0.8-1.7-0.9c-8.4-0.7-26.6-1.1-54.1-1.1c-8.2,0-16.8,0-25.3,0.1&#10;&#9;&#9;c-39.8,0-79.3,0.5-79.7,0.5c-0.8,0-1.5,0.4-1.9,1l-0.1,0.2c-0.1,0.1-0.2,0.2-0.2,0.3l-3.1,4.1l-20.1,26.6c-0.2,0.3-0.3,0.6-0.4,0.9&#10;&#9;&#9;c-0.2,0.4-0.3,0.8-0.3,1.2c0,0.6,0.2,1.1,0.6,1.5c23.6,27.9,52.5,56,73.9,75.8c17.4,16.2,29.7,26.9,29.9,27.1&#10;&#9;&#9;c0.4,0.4,1,0.6,1.5,0.6c0.2,0,0.3,0.1,0.5,0.1c0.6,0,1.2-0.2,1.6-0.6c13.8-12.4,26.7-24.5,38.3-35.8c39.4-37.9,64.9-66.9,65.2-67.3&#10;&#9;&#9;C1648.9,297.7,1649,296.6,1648.6,295.8z M1542.7,396.4c-9.8-8.6-61.7-54.5-100.2-100l21.6-28.6c7.3-0.1,45.9-0.5,83.5-0.5&#10;&#9;&#9;c37.8,0,62.4,0.4,73.3,1.3c6.8,8.4,18.6,23,22.4,28.2C1635.7,305.1,1596.5,348.5,1542.7,396.4z" transform="matrix(0.26201924681663513, 0, 0, 0.26201924681663513, 27.24265480041501, 3.1096127033233643)"/><path fill="#CCCCCC" d="M1526.7,324.8c-0.1,0-14.1,1.4-27.7,1.4c-9.2,0-16-0.6-20.3-1.8c-1.1-0.3-2.2,0.1-2.8,1.1&#10;&#9;&#9;c-0.6,0.9-0.5,2.1,0.3,3c6.5,7,12.7,13.6,18.5,19.6c0.6,0.6,1.5,0.9,2.4,0.7c0.9-0.2,1.5-0.9,1.8-1.7c0.7-2.4,6.2-5.1,12.5-5.1&#10;&#9;&#9;c3.5,0,11.7,0.9,12.2,9.1c0.1,1.6,1.7,9.1,23.7,9.1c1.3,0,2.7,0,4.1-0.1c0.1,0,0.2,0,0.3,0c0.3,0,7.4-1.2,15.1-3.6&#10;&#9;&#9;c10.9-3.5,17.6-7.8,19.9-12.8c1-2.3,1.7-5.8-1-10.2c-0.4-1-1.9-3.3-6.3-5.4c-6.3-3.1-15.9-4.6-28.7-4.6&#10;&#9;&#9;C1543.5,323.4,1535.5,323.9,1526.7,324.8z M1582.1,341.6c-3.4,7.6-23.5,12.4-31.1,13.6c-1.3,0-2.6,0.1-3.8,0.1&#10;&#9;&#9;c-16.3,0-18.6-4.2-18.8-4.6c-0.6-8.4-7.2-13.6-17.1-13.6c-5.6,0-11.9,1.8-15.2,5.3c-3.6-3.8-7.4-7.7-11.2-11.9&#10;&#9;&#9;c3.9,0.4,8.6,0.7,14.1,0.7c13.8,0,28.1-1.4,28.2-1.4c8.7-0.9,16.5-1.4,23.4-1.4c25.5,0,30.1,6.4,30.5,7.1c0.1,0.2,0.1,0.2,0.2,0.4&#10;&#9;&#9;C1583.1,338.6,1582.6,340.4,1582.1,341.6z" transform="matrix(0.26201924681663513, 0, 0, 0.26201924681663513, 27.24265480041501, 3.1096127033233643)"/><path fill="#CCCCCC" d="M1449.3,298.8c0,0,4.4,4.9,11.1,12.4c0.5,0.5,1.1,0.8,1.8,0.8c0.3,0,0.6-0.1,0.9-0.2c1-0.4,1.6-1.3,1.5-2.4&#10;&#9;&#9;c0-1.2,0-2.5,0-4.1c0-0.3,0-0.5,0-0.8c0.5-12.5,9.6-22.8,23.8-26.8l20.3-0.3c1.3,0,2.4-1.1,2.4-2.5c0-1.4-1.1-2.4-2.4-2.5&#10;&#9;&#9;l-40.8-0.2c-0.8,0-1.5,0.4-2,1l-16.8,22.5C1448.5,296.6,1448.5,297.9,1449.3,298.8z M1459.8,303.2c-2.4-2.7-4.2-4.7-5.4-6.1&#10;&#9;&#9;l14.5-19.6h7.5C1466.6,283.3,1460.6,292.5,1459.8,303.2z" transform="matrix(0.26201924681663513, 0, 0, 0.26201924681663513, 27.24265480041501, 3.1096127033233643)"/><path fill="#CCCCCC" d="M1636.6,296.5c-3.4-4.9-14.8-21.2-17-23c-0.4-0.4-1-0.5-1.5-0.5l-14.3-0.1c0,0,0,0,0,0&#10;&#9;&#9;c-1.3,0-2.4,1.1-2.5,2.4c0,1.3,1,2.5,2.4,2.5l10.1,0.4l0,0.1l-3,10.7l-15.9-0.1c-3.5-2.1-21.3-11.8-45.9-11.8&#10;&#9;&#9;c-18.2,0-35.7,5.4-52,16c-0.1,0.1-0.3,0.2-0.4,0.3c-1.4,1.4-3.4,4.5-2.2,7.9c1.5,4.2,7.4,6.7,18,7.6c0,0,0.1,0,0.1,0&#10;&#9;&#9;c0.1,0,2,0.1,5,0.1c5.7,0,16.4-0.2,24.5-1.6c0.7-0.1,5.5-0.4,12.2-0.4c15.8,0,44.2,2,57.2,15.4c0.5,0.5,1.1,0.7,1.7,0.7&#10;&#9;&#9;c0,0,0,0,0,0c0.7,0,1.3-0.3,1.7-0.7c12.1-12.2,19.2-19.6,21.6-22.8C1637.2,298.5,1637.2,297.4,1636.6,296.5z M1541.4,302.3&#10;&#9;&#9;c-7.8,1.4-18.3,1.6-23.8,1.6c-2.6,0-4.4,0-4.8-0.1c-11.9-1-13.5-3.8-13.7-4.4c-0.4-0.9,0.6-2.1,0.9-2.6c15.4-9.9,31.9-15,49-15&#10;&#9;&#9;c25.5,0,43.8,11.3,43.9,11.5c0.4,0.2,0.8,0.4,1.3,0.4l18.5,0.1c0,0,0,0,0,0c1.1,0,2.1-0.7,2.4-1.8l3.5-12.3&#10;&#9;&#9;c2.8,3.7,7.9,10.7,12.8,17.6c-3.2,3.8-9.9,10.8-18.3,19.4c-14.9-12.9-42.9-14.9-58.7-14.9c-7.5,0-12.5,0.4-12.7,0.5&#10;&#9;&#9;C1541.5,302.3,1541.5,302.3,1541.4,302.3z" transform="matrix(0.26201924681663513, 0, 0, 0.26201924681663513, 27.24265480041501, 3.1096127033233643)"/><path fill="#CCCCCC" d="M1598.2,274.1c-0.4-0.7-1.2-1.2-2.1-1.2l-15.5-0.1c0,0,0,0,0,0c-0.9,0-1.8,0.5-2.2,1.4&#10;&#9;&#9;c-0.4,0.9-0.3,1.9,0.3,2.6l0.6,0.8c0.3,0.4,0.6,0.6,1.1,0.8l12,4.5c0.3,0.1,0.6,0.2,0.9,0.2c0.9,0,1.7-0.5,2.2-1.3l2.8-5.2&#10;&#9;&#9;C1598.7,275.7,1598.6,274.8,1598.2,274.1z" transform="matrix(0.26201924681663513, 0, 0, 0.26201924681663513, 27.24265480041501, 3.1096127033233643)"/><path fill="#CCCCCC" d="M1544.6,391c0.1-0.1,10.7-10.3,24.5-23.7c0.8-0.8,1-2.1,0.4-3.1c-0.6-1-1.9-1.4-3-1c-0.7,0.3-1.4,0.5-2,0.7&#10;&#9;&#9;c-0.8,0.2-10.9,2.4-23.2,2.4c-9.7,0-18.1-1.4-25-4c-0.2-0.1-0.7-0.3-1.5-0.7c-1.1-0.5-2.4-0.2-3.1,0.8c-0.7,1-0.6,2.3,0.3,3.2&#10;&#9;&#9;c13.4,13.2,23.4,21.9,29.7,25.8c0.4,0.2,0.8,0.4,1.3,0.4C1543.5,391.7,1544.2,391.5,1544.6,391z M1542.7,386&#10;&#9;&#9;c-0.3-0.2-0.6-0.4-0.9-0.6c-5-3.5-11.5-9.2-18.7-15.9c5.5,1.2,11.6,1.8,18.2,1.8c7.3,0,13.7-0.7,18.2-1.4&#10;&#9;&#9;C1551.6,377.5,1545.5,383.4,1542.7,386z" transform="matrix(0.26201924681663513, 0, 0, 0.26201924681663513, 27.24265480041501, 3.1096127033233643)"/><path fill="#CCCCCC" d="M1471.6,316.9c0,0-6.1-25.2,17.2-36.7C1488.9,280.2,1457.5,291.6,1471.6,316.9z" transform="matrix(0.26201924681663513, 0, 0, 0.26201924681663513, 27.24265480041501, 3.1096127033233643)"/><path fill="#CCCCCC" d="M1576.9,310.2c17.5,3.9,30.7,14.2,30.7,14.2C1605,316.7,1586,312,1576.9,310.2z" transform="matrix(0.26201924681663513, 0, 0, 0.26201924681663513, 27.24265480041501, 3.1096127033233643)"/><path fill="#CCCCCC" d="M1576.9,310.2c-1.6-0.3-3.2-0.6-4.9-0.9C1572.1,309.3,1574,309.6,1576.9,310.2z" transform="matrix(0.26201924681663513, 0, 0, 0.26201924681663513, 27.24265480041501, 3.1096127033233643)"/><path fill="#CCCCCC" d="M1522.3,351c-7.9-13.3-22-3.7-22-3.7C1513.4,340.7,1522.3,351,1522.3,351z" transform="matrix(0.26201924681663513, 0, 0, 0.26201924681663513, 27.24265480041501, 3.1096127033233643)"/></g></svg>