<?xml version="1.0" standalone="no"?>
<!DOCTYPE svg PUBLIC "-//W3C//DTD SVG 20010904//EN"
 "http://www.w3.org/TR/2001/REC-SVG-20010904/DTD/svg10.dtd">
<svg version="1.0" xmlns="http://www.w3.org/2000/svg"
 width="300.000000pt" height="179.000000pt" viewBox="0 0 300.000000 179.000000"
 preserveAspectRatio="xMidYMid meet">
<metadata>
Created by potrace 1.10, written by Peter Selinger 2001-2011
</metadata>
<g transform="translate(0.000000,179.000000) scale(0.100000,-0.100000)"
fill="#000000" stroke="none">
<path d="M1320 1559 c-251 -67 -423 -246 -489 -508 -25 -99 -27 -192 -6 -289
14 -68 52 -182 64 -192 3 -3 12 -16 20 -30 81 -143 254 -272 422 -314 73 -18
228 -21 308 -6 122 23 254 95 348 188 332 332 240 893 -182 1105 -136 68 -332
87 -485 46z m345 -26 c113 -27 202 -80 296 -173 134 -134 199 -285 199 -465 0
-180 -65 -331 -199 -465 -135 -134 -274 -192 -461 -192 -187 0 -326 58 -461
192 -132 132 -199 286 -199 459 1 183 65 338 194 467 88 87 155 130 256 164
122 41 245 45 375 13z"/>
<path d="M1356 1465 c-135 -34 -293 -152 -360 -268 -38 -65 -73 -169 -81 -244
l-7 -61 82 31 c75 28 80 32 55 39 -18 4 -38 2 -56 -7 -15 -8 -30 -15 -34 -15
-14 0 -2 86 20 145 65 174 207 303 385 350 69 18 209 19 276 1 204 -54 363
-215 403 -408 8 -35 0 -51 -14 -28 -3 5 -13 6 -22 3 -10 -4 -14 -2 -9 5 3 6
-1 15 -10 20 -11 6 -15 16 -10 27 5 15 2 16 -21 10 -45 -11 -47 -21 -6 -46 21
-12 62 -43 91 -68 l54 -45 -7 50 c-18 136 -77 257 -169 350 -69 69 -129 107
-225 142 -85 31 -246 39 -335 17z"/>
<path d="M1464 1370 c-8 -38 -24 -49 -25 -18 0 13 -3 17 -6 10 -6 -15 35 -203
48 -216 4 -5 8 48 8 117 1 122 -12 174 -25 107z"/>
<path d="M1513 1270 c1 -66 5 -120 8 -120 3 0 13 42 23 94 17 89 17 96 1 120
-10 14 -21 26 -26 26 -5 0 -8 -54 -6 -120z"/>
<path d="M1371 1333 c-11 -12 -7 -29 28 -111 45 -107 49 -102 25 28 -17 90
-28 109 -53 83z"/>
<path d="M1587 1340 c-6 -17 -27 -174 -26 -199 0 -9 18 29 39 83 22 55 36 104
33 109 -3 5 -11 1 -16 -9 -10 -18 -11 -17 -18 6 -4 18 -8 21 -12 10z"/>
<path d="M1270 1315 c0 -11 122 -197 126 -192 6 5 -60 197 -67 197 -4 0 -9
-10 -13 -22 l-6 -23 -20 25 c-11 14 -20 21 -20 15z"/>
<path d="M1655 1308 c-2 -7 -15 -50 -30 -96 -15 -46 -25 -85 -22 -88 4 -5 117
179 117 191 0 4 -7 1 -17 -6 -13 -11 -17 -11 -20 -1 -3 6 -9 12 -14 12 -5 0
-11 -6 -14 -12z"/>
<path d="M1240 1282 c0 -4 5 -13 12 -20 21 -21 1 -24 -29 -5 l-28 18 32 -40
c35 -45 137 -146 132 -130 -13 34 -102 185 -110 185 -5 0 -9 -4 -9 -8z"/>
<path d="M1700 1231 c-16 -33 -30 -63 -30 -66 0 -12 78 48 99 76 25 34 23 50
-3 24 -14 -14 -16 -14 -16 -1 0 36 -22 22 -50 -33z"/>
<path d="M1774 1214 c-23 -30 -25 -37 -13 -49 12 -12 19 -11 47 11 17 14 37
35 43 45 10 20 10 20 -16 3 -14 -9 -29 -13 -33 -9 -4 4 -1 10 6 12 6 3 12 9
12 14 0 19 -20 8 -46 -27z"/>
<path d="M1180 1231 c0 -5 5 -13 10 -16 6 -3 10 -11 10 -18 0 -8 -3 -8 -12 1
-15 15 -42 16 -33 1 7 -10 132 -105 164 -124 21 -12 6 10 -63 90 -60 71 -76
85 -76 66z"/>
<path d="M1837 1174 c-43 -39 -43 -40 -19 -53 13 -7 28 -3 57 16 l40 25 -33
-6 -32 -6 16 26 c25 37 13 37 -29 -2z"/>
<path d="M1130 1170 c0 -5 8 -14 18 -20 14 -9 11 -10 -16 -6 -31 5 -32 5 -15
-13 22 -23 163 -94 171 -86 3 3 1 9 -4 13 -5 5 -39 34 -75 65 -67 58 -79 65
-79 47z"/>
<path d="M1565 1044 c-71 -52 -137 -99 -145 -103 -13 -8 -12 -12 4 -30 l19
-21 11 22 c10 19 230 186 247 187 4 1 0 -17 -7 -40 -13 -36 -13 -47 3 -97 22
-74 30 -82 89 -86 29 -3 75 -17 113 -36 54 -27 72 -31 108 -26 l45 6 -7 -33
c-3 -17 -16 -58 -28 -89 -25 -67 -36 -73 -168 -88 -94 -11 -206 -1 -329 29
-168 42 -295 53 -460 41 l-65 -4 -17 34 c-9 19 -20 53 -23 75 l-7 40 84 39
c112 52 163 71 226 86 51 12 53 11 72 -13 25 -31 88 -72 98 -62 4 3 -12 22
-36 41 -23 20 -42 41 -42 49 0 28 -27 38 -67 24 -21 -7 -49 -14 -63 -15 -14
-1 -88 -30 -165 -65 -77 -35 -141 -64 -142 -64 -5 -2 27 -135 42 -171 l16 -41
46 9 c25 6 115 8 202 6 134 -4 175 -9 291 -38 156 -38 291 -45 424 -21 l79 14
24 53 c28 63 59 202 47 213 -30 27 -375 271 -381 270 -4 0 -66 -43 -138 -95z
m197 -18 c22 -26 48 -46 65 -49 24 -5 164 -103 198 -139 20 -21 -58 2 -132 38
-61 31 -80 35 -113 30 -39 -6 -40 -5 -40 21 0 16 -7 41 -15 57 -16 30 -20 86
-7 86 4 0 24 -20 44 -44z"/>
<path d="M1873 1112 l-22 -17 22 -16 c17 -12 27 -13 47 -5 34 15 36 34 2 29
-15 -1 -21 0 -14 3 6 3 12 10 12 15 0 14 -23 10 -47 -9z"/>
<path d="M1090 1100 c0 -6 5 -8 10 -5 6 3 10 -1 10 -9 0 -9 -7 -16 -15 -16
-23 0 -18 -17 8 -24 12 -3 43 -12 68 -20 77 -24 78 -3 2 40 -85 49 -83 48 -83
34z"/>
<path d="M1070 1016 c0 -8 3 -16 8 -19 4 -2 2 -3 -4 -1 -6 1 -17 -2 -24 -6
-26 -16 39 -23 83 -10 l42 13 -40 18 c-50 22 -65 23 -65 5z"/>
<path d="M1053 598 c-28 -14 -30 -47 -4 -79 18 -22 23 -23 152 -20 108 2 152
-2 229 -19 95 -21 324 -39 285 -22 -11 5 -51 12 -90 15 -88 8 -129 15 -185 34
-28 10 -105 18 -205 22 -140 5 -160 8 -163 23 -6 31 67 40 208 24 41 -5 78
-10 81 -12 4 -2 27 -6 50 -9 24 -3 80 -14 124 -25 130 -31 184 -38 262 -33 40
2 73 0 73 -5 0 -26 -100 -90 -190 -121 -130 -45 -280 -38 -407 19 -77 35 -82
53 -13 52 36 0 154 -13 160 -17 5 -3 57 -8 117 -11 77 -3 122 -1 158 10 l50
14 -85 -5 c-59 -3 -126 2 -217 16 -135 22 -317 28 -327 12 -9 -13 104 -86 172
-111 170 -64 359 -48 516 44 46 27 176 142 176 156 0 4 -24 1 -52 -7 -87 -24
-245 -19 -373 11 -229 53 -444 72 -502 44z"/>
</g>
</svg>
